<svg width="32" height="32" viewBox="0 0 32 32" fill="none" xmlns="http://www.w3.org/2000/svg">
<path d="M25.3333 2.67999H8C6.392 2.67999 4 3.74533 4 6.67999V25.3467C4 28.2813 6.392 29.3467 8 29.3467H28V26.68H8.016C7.4 26.664 6.66667 26.42 6.66667 25.3467C6.66667 25.212 6.67867 25.092 6.69867 24.9827C6.848 24.216 7.476 24.0267 8.01467 24.0133H26.6667C26.6907 24.0133 26.708 24.0013 26.732 24H28V5.34666C28 3.87599 26.804 2.67999 25.3333 2.67999ZM25.3333 21.3467H6.66667V6.67999C6.66667 5.60533 7.4 5.36266 8 5.34666H17.3333V14.68L20 13.3467L22.6667 14.68V5.34666H25.3333V21.3467Z" fill="#49454F"/>
</svg>
