<svg width="40" height="40" viewBox="0 0 40 40" fill="none" xmlns="http://www.w3.org/2000/svg">
<path d="M38.5716 14.2857C38.5716 13.528 38.2704 12.8012 37.7347 12.2654C37.199 11.7296 36.4721 11.4286 35.7144 11.4286H30.0001L25.7144 5.71429H14.2859L10.0001 11.4286H4.28585C3.52808 11.4286 2.80137 11.7296 2.26555 12.2654C1.72973 12.8012 1.42871 13.528 1.42871 14.2857V31.4286C1.42871 32.1863 1.72973 32.9132 2.26555 33.4489C2.80137 33.9846 3.52808 34.2857 4.28585 34.2857H35.7144C36.4721 34.2857 37.199 33.9846 37.7347 33.4489C38.2704 32.9132 38.5716 32.1863 38.5716 31.4286V14.2857Z" stroke="white" stroke-width="2" stroke-linecap="round" stroke-linejoin="round"/>
<path d="M20.0003 27.8571C23.5507 27.8571 26.4289 24.979 26.4289 21.4286C26.4289 17.8782 23.5507 15 20.0003 15C16.4499 15 13.5718 17.8782 13.5718 21.4286C13.5718 24.979 16.4499 27.8571 20.0003 27.8571Z" stroke="white" stroke-width="2" stroke-linecap="round" stroke-linejoin="round"/>
</svg>
