<svg width="32" height="32" viewBox="0 0 32 32" fill="none" xmlns="http://www.w3.org/2000/svg">
<path d="M16 4C9.38 4 4 9.38 4 16C4 22.62 9.38 28 16 28C22.62 28 28 22.62 28 16C28 9.38 22.62 4 16 4ZM16 26C10.48 26 6 21.52 6 16C6 10.48 10.48 6 16 6C21.52 6 26 10.48 26 16C26 21.52 21.52 26 16 26Z" fill="#49454F"/>
<path d="M16.86 9.09999C14.94 8.61999 12.8 9.83999 12.22 11.72C12.04 12.26 12.34 12.82 12.86 12.98C13.38 13.14 13.94 12.86 14.12 12.32C14.4 11.44 15.48 10.82 16.4 11.04C17.3 11.26 17.98 12.32 17.8 13.24C17.64 14.16 16.66 14.9 15.72 14.78C15.44 14.74 15.14 14.84 14.94 15.02C14.72 15.22 14.6 15.48 14.6 15.78L14.58 18.9C14.58 19.46 15.02 19.9 15.58 19.9C16.14 19.9 16.58 19.46 16.58 18.9L16.6 16.72C18.14 16.42 19.5 15.16 19.78 13.58C20.14 11.64 18.8 9.57999 16.86 9.09999Z" fill="#49454F"/>
<path d="M15.6201 20.78H15.6001C15.0601 20.78 14.6201 21.24 14.6001 21.78C14.6001 21.8 14.6001 21.98 14.6001 22C14.6001 22.54 15.0401 22.9 15.5801 22.92H15.6001C16.1401 22.92 16.5801 22.42 16.6001 21.88C16.6001 21.86 16.6001 21.74 16.6001 21.72C16.5801 21.18 16.1601 20.78 15.6201 20.78Z" fill="#49454F"/>
</svg>
