<svg width="32" height="32" viewBox="0 0 32 32" fill="none" xmlns="http://www.w3.org/2000/svg">
<path d="M19.7918 26.6667H8.6665C6.82784 26.6667 5.33317 25.172 5.33317 23.3333C5.33317 21.4947 6.82784 20 8.6665 20H17.9998C20.5732 20 22.6665 17.9067 22.6665 15.3333C22.6665 12.76 20.5732 10.6667 17.9998 10.6667H11.5185C11.0288 11.6265 10.4225 12.5222 9.71317 13.3333H17.9998C19.1025 13.3333 19.9998 14.2307 19.9998 15.3333C19.9998 16.436 19.1025 17.3333 17.9998 17.3333H8.6665C5.3585 17.3333 2.6665 20.0253 2.6665 23.3333C2.6665 26.6413 5.3585 29.3333 8.6665 29.3333H21.4572C20.8029 28.5103 20.2442 27.6157 19.7918 26.6667ZM6.6665 2.66666C4.46117 2.66666 2.6665 4.46132 2.6665 6.66666C2.6665 10.9173 6.6665 13.3333 6.6665 13.3333C6.6665 13.3333 10.6665 10.916 10.6665 6.66666C10.6665 4.46132 8.87184 2.66666 6.6665 2.66666ZM6.6665 8.66666C6.40377 8.66657 6.14363 8.61473 5.90093 8.51411C5.65823 8.41349 5.43773 8.26604 5.25201 8.0802C5.0663 7.89436 4.919 7.67376 4.81854 7.431C4.71808 7.18823 4.66642 6.92805 4.6665 6.66532C4.66659 6.40259 4.71843 6.14245 4.81905 5.89975C4.91967 5.65705 5.06712 5.43655 5.25296 5.25083C5.4388 5.06512 5.6594 4.91782 5.90216 4.81736C6.14493 4.7169 6.40511 4.66524 6.66784 4.66532C7.19845 4.6655 7.70725 4.87645 8.08233 5.25178C8.4574 5.6271 8.66801 6.13605 8.66784 6.66666C8.66766 7.19727 8.45671 7.70607 8.08138 8.08115C7.70606 8.45622 7.19711 8.66683 6.6665 8.66666Z" fill="#49454F"/>
<path d="M25.3335 18.6667C23.1282 18.6667 21.3335 20.4613 21.3335 22.6667C21.3335 26.9173 25.3335 29.3333 25.3335 29.3333C25.3335 29.3333 29.3335 26.916 29.3335 22.6667C29.3335 20.4613 27.5388 18.6667 25.3335 18.6667ZM25.3335 24.6667C25.0708 24.6666 24.8106 24.6147 24.5679 24.5141C24.3252 24.4135 24.1047 24.266 23.919 24.0802C23.7333 23.8944 23.586 23.6738 23.4855 23.431C23.3851 23.1882 23.3334 22.9281 23.3335 22.6653C23.3336 22.4026 23.3854 22.1425 23.486 21.8998C23.5867 21.6571 23.7341 21.4366 23.92 21.2508C24.1058 21.0651 24.3264 20.9178 24.5692 20.8174C24.8119 20.7169 25.0721 20.6652 25.3348 20.6653C25.8654 20.6655 26.3742 20.8765 26.7493 21.2518C27.1244 21.6271 27.335 22.136 27.3348 22.6667C27.3347 23.1973 27.1237 23.7061 26.7484 24.0811C26.3731 24.4562 25.8641 24.6668 25.3335 24.6667Z" fill="#49454F"/>
</svg>
