<svg width="32" height="32" viewBox="0 0 32 32" fill="none" xmlns="http://www.w3.org/2000/svg">
<path d="M16.0625 28.1356C15.9023 28.1356 15.7448 28.0945 15.605 28.0163C12.8625 26.4867 10.5783 24.2524 8.98861 21.5443C7.39889 18.8362 6.56132 15.7527 6.5625 12.6125C6.5625 12.4842 6.56375 12.3562 6.56625 12.2288C6.62875 9.38625 7.68688 6.9925 9.62875 5.30688C11.3463 3.81938 13.6306 3 16.0625 3C18.4944 3 20.7781 3.81938 22.4938 5.30688C24.4375 6.99438 25.4975 9.38625 25.5563 12.2288C25.5563 12.3538 25.5606 12.4844 25.5606 12.6125C25.5623 15.8013 24.6983 18.9307 23.0606 21.6669C21.471 24.3172 19.2163 26.506 16.52 28.0163C16.3802 28.0945 16.2227 28.1356 16.0625 28.1356ZM16.0625 4.875C14.0819 4.875 12.2338 5.53125 10.8594 6.72375C9.32625 8.0525 8.49 9.97 8.44125 12.2688C8.44125 12.3825 8.4375 12.4975 8.4375 12.6125C8.43657 15.3292 9.1382 18 10.4743 20.3655C11.8103 22.7309 13.7354 24.7107 16.0625 26.1125C18.2742 24.7753 20.1255 22.9176 21.455 20.7013C22.9174 18.2567 23.689 15.4611 23.6875 12.6125C23.6875 12.4975 23.6875 12.3825 23.6838 12.2688C23.6344 9.97 22.7981 8.0525 21.2656 6.72375C19.8906 5.53125 18.0431 4.875 16.0625 4.875Z" fill="#49454F"/>
<path d="M16.0869 18.5375C14.921 18.5375 13.7812 18.1918 12.8118 17.544C11.8424 16.8963 11.0868 15.9756 10.6406 14.8984C10.1944 13.8212 10.0777 12.636 10.3052 11.4924C10.5326 10.3489 11.0941 9.29854 11.9185 8.47411C12.7429 7.64968 13.7933 7.08823 14.9368 6.86077C16.0804 6.63331 17.2656 6.75005 18.3428 7.19623C19.42 7.64241 20.3407 8.39799 20.9884 9.36741C21.6362 10.3368 21.9819 11.4766 21.9819 12.6425C21.9802 14.2054 21.3586 15.7039 20.2535 16.8091C19.1483 17.9142 17.6498 18.5358 16.0869 18.5375ZM16.0869 8.62313C15.2918 8.62313 14.5145 8.85891 13.8534 9.30066C13.1923 9.74241 12.6771 10.3703 12.3728 11.1049C12.0686 11.8395 11.989 12.6478 12.1442 13.4276C12.2993 14.2074 12.6823 14.9237 13.2445 15.4859C13.8068 16.0481 14.5232 16.4309 15.303 16.586C16.0829 16.741 16.8912 16.6613 17.6257 16.3569C18.3603 16.0526 18.9881 15.5372 19.4297 14.8761C19.8714 14.2149 20.107 13.4376 20.1069 12.6425C20.1051 11.5771 19.6809 10.5559 18.9273 9.80283C18.1737 9.04972 17.1523 8.62616 16.0869 8.625V8.62313Z" fill="#49454F"/>
</svg>
