<svg width="22" height="22" viewBox="0 0 22 22" fill="none" xmlns="http://www.w3.org/2000/svg">
<path d="M8.70834 12.6042C8.70834 13.4933 9.39586 14.2083 10.2392 14.2083H11.9625C12.6958 14.2083 13.2917 13.585 13.2917 12.8058C13.2917 11.9717 12.925 11.6692 12.3842 11.4767L9.62501 10.5142C9.08418 10.3217 8.71752 10.0283 8.71752 9.185C8.71752 8.415 9.31334 7.7825 10.0467 7.7825H11.77C12.6133 7.7825 13.3009 8.4975 13.3009 9.38667" stroke="white" stroke-width="1.5" stroke-linecap="round" stroke-linejoin="round"/>
<path d="M11 6.875V15.125" stroke="white" stroke-width="1.5" stroke-linecap="round" stroke-linejoin="round"/>
<path d="M20.1667 11C20.1667 16.06 16.06 20.1667 11 20.1667C5.94001 20.1667 1.83334 16.06 1.83334 11C1.83334 5.94001 5.94001 1.83334 11 1.83334" stroke="white" stroke-width="1.5" stroke-linecap="round" stroke-linejoin="round"/>
<path d="M15.5833 2.75V6.41667H19.25" stroke="white" stroke-width="1.5" stroke-linecap="round" stroke-linejoin="round"/>
<path d="M20.1667 1.83334L15.5833 6.41668" stroke="white" stroke-width="1.5" stroke-linecap="round" stroke-linejoin="round"/>
</svg>
