<svg width="40" height="40" viewBox="0 0 40 40" fill="none" xmlns="http://www.w3.org/2000/svg">
<path d="M31.1573 14.64C33.7152 14.64 35.7887 12.5664 35.7887 10.0086C35.7887 7.4507 33.7152 5.37714 31.1573 5.37714C28.5994 5.37714 26.5259 7.4507 26.5259 10.0086C26.5259 12.5664 28.5994 14.64 31.1573 14.64Z" stroke="white" stroke-width="2" stroke-linecap="round" stroke-linejoin="round"/>
<path d="M24.209 23.9071V21.5907C24.209 17.7527 27.3203 14.6414 31.1583 14.6414C34.9963 14.6414 38.1074 17.7527 38.1074 21.5907V23.9071" stroke="white" stroke-width="2" stroke-linecap="round" stroke-linejoin="round"/>
<path d="M18.8582 23.9104H38.1083" stroke="white" stroke-width="2" stroke-linecap="round" stroke-linejoin="round"/>
<path d="M10.297 16.0345C12.999 16.0345 15.1893 13.8442 15.1893 11.1423C15.1893 8.44034 12.999 6.25 10.297 6.25C7.59513 6.25 5.40479 8.44034 5.40479 11.1423C5.40479 13.8442 7.59513 16.0345 10.297 16.0345Z" stroke="white" stroke-width="2" stroke-linecap="round" stroke-linejoin="round"/>
<path d="M18.8585 24.5959C18.8585 22.3253 17.9565 20.1476 16.3509 18.5421C14.7453 16.9365 12.5677 16.0345 10.297 16.0345C8.02639 16.0345 5.84876 16.9365 4.24319 18.5421C2.6376 20.1476 1.7356 22.3253 1.7356 24.5959V28.2651H5.40479L6.62785 38.0497H13.9662L15.1893 28.2651H18.8585V24.5959Z" stroke="white" stroke-width="2" stroke-linecap="round" stroke-linejoin="round"/>
</svg>
