<svg width="40" height="40" viewBox="0 0 40 40" fill="none" xmlns="http://www.w3.org/2000/svg">
<path d="M2.58936 30.5134C2.58936 32.0914 3.86856 33.3706 5.4465 33.3706H34.5538C36.1315 33.3706 37.4109 32.0914 37.4109 30.5134V25.2571C35.0958 24.6296 33.3929 22.5136 33.3929 20C33.3929 17.4864 35.0958 15.3704 37.4109 14.7429V9.4866C37.4109 7.90866 36.1315 6.62946 34.5538 6.62946H5.4465C3.86856 6.62946 2.58936 7.90866 2.58936 9.4866V14.7309C4.9271 15.3433 6.65184 17.4702 6.65184 20C6.65184 22.5298 4.9271 24.6567 2.58936 25.2691V30.5134Z" stroke="white" stroke-width="2" stroke-linecap="round" stroke-linejoin="round"/>
<path d="M26.0269 6.65176V11.3393" stroke="white" stroke-width="2" stroke-linecap="round" stroke-linejoin="round"/>
<path d="M26.0269 17.6562V22.3437" stroke="white" stroke-width="2" stroke-linecap="round" stroke-linejoin="round"/>
<path d="M26.0269 28.6831V33.3706" stroke="white" stroke-width="2" stroke-linecap="round" stroke-linejoin="round"/>
</svg>
