<svg width="22" height="22" viewBox="0 0 22 22" fill="none" xmlns="http://www.w3.org/2000/svg">
<path d="M11 1.83334C16.06 1.83334 20.1667 5.94001 20.1667 11C20.1667 16.06 16.06 20.1667 11 20.1667C9.31334 20.1667 7.72751 19.7083 6.36168 18.9108L1.83334 20.1667L3.0617 15.5833C2.28253 14.2358 1.83334 12.6683 1.83334 11C1.83334 7.60834 3.67584 4.64751 6.41668 3.06167" stroke="white" stroke-width="1.5" stroke-miterlimit="10" stroke-linecap="round" stroke-linejoin="round"/>
<path d="M15.5833 13.9058C15.5833 14.0708 15.5467 14.245 15.4642 14.41C15.3817 14.575 15.2808 14.7308 15.1525 14.8775C14.9233 15.125 14.6758 15.3083 14.4008 15.4183C14.1258 15.5375 13.8233 15.5925 13.5025 15.5925C13.035 15.5925 12.5308 15.4825 12.0083 15.2534C11.4766 15.0242 10.9542 14.7217 10.4317 14.3458C9.89999 13.9608 9.40498 13.53 8.92831 13.0625C8.45165 12.5858 8.03001 12.0817 7.64501 11.5592C7.26918 11.0367 6.96664 10.5142 6.74664 9.99166C6.52664 9.46916 6.41666 8.96501 6.41666 8.48835C6.41666 8.17668 6.47165 7.87418 6.58165 7.59918C6.69165 7.31501 6.86583 7.05835 7.11333 6.82918C7.40667 6.53585 7.72748 6.39835 8.06665 6.39835C8.19498 6.39835 8.32334 6.42584 8.44251 6.48084C8.56168 6.53584 8.67165 6.61834 8.75415 6.73751L9.81751 8.24083C9.90001 8.35999 9.96413 8.46083 10.0008 8.56167C10.0466 8.6625 10.065 8.75416 10.065 8.84583C10.065 8.95583 10.0283 9.06585 9.96415 9.17585C9.89999 9.28585 9.81751 9.39583 9.70751 9.50583L9.35918 9.87249C9.30418 9.92749 9.28583 9.9825 9.28583 10.0558C9.28583 10.0925 9.29501 10.1292 9.30418 10.1658C9.32251 10.2025 9.33166 10.23 9.34083 10.2575C9.42333 10.4133 9.56997 10.6058 9.77163 10.8442C9.98247 11.0825 10.2025 11.33 10.4408 11.5683C10.6883 11.8158 10.9267 12.0358 11.1742 12.2467C11.4125 12.4483 11.6142 12.5858 11.77 12.6683C11.7975 12.6775 11.825 12.6958 11.8525 12.705C11.8891 12.7233 11.9258 12.7233 11.9717 12.7233C12.0542 12.7233 12.1092 12.6958 12.1642 12.6408L12.5125 12.2925C12.6317 12.1733 12.7417 12.0908 12.8425 12.0358C12.9525 11.9717 13.0533 11.935 13.1725 11.935C13.2642 11.935 13.3558 11.9533 13.4566 11.9992C13.5575 12.045 13.6675 12.1 13.7775 12.1825L15.2992 13.2642C15.4183 13.3467 15.5008 13.4475 15.5558 13.5575C15.5558 13.6675 15.5833 13.7775 15.5833 13.9058Z" stroke="white" stroke-width="1.5" stroke-miterlimit="10"/>
</svg>
