<svg width="40" height="40" viewBox="0 0 40 40" fill="none" xmlns="http://www.w3.org/2000/svg">
<path d="M32.2287 26.6858C32.7656 26.176 33.193 25.5622 33.4853 24.8819C33.7773 24.2017 33.9282 23.469 33.9282 22.7287C33.9282 21.9883 33.7773 21.2557 33.4853 20.5754C33.193 19.8951 32.7656 19.2813 32.2287 18.7715C31.1299 17.7285 29.6724 17.147 28.1573 17.147C26.6421 17.147 25.1848 17.7285 24.0859 18.7715L20.0002 22.8572L15.9144 18.7715C14.8155 17.7285 13.3581 17.147 11.843 17.147C10.3279 17.147 8.87052 17.7285 7.77158 18.7715C7.23469 19.2813 6.80721 19.8951 6.51507 20.5754C6.22292 21.2557 6.07227 21.9883 6.07227 22.7287C6.07227 23.469 6.22292 24.2017 6.51507 24.8819C6.80721 25.5622 7.23469 26.176 7.77158 26.6858L20.0002 38.5714L32.2287 26.6858Z" stroke="white" stroke-width="2" stroke-linecap="round" stroke-linejoin="round"/>
<path d="M19.9999 12.8571C23.1558 12.8571 25.7142 10.2988 25.7142 7.14284C25.7142 3.98693 23.1558 1.42856 19.9999 1.42856C16.844 1.42856 14.2856 3.98693 14.2856 7.14284C14.2856 10.2988 16.844 12.8571 19.9999 12.8571Z" stroke="white" stroke-width="2" stroke-linecap="round" stroke-linejoin="round"/>
</svg>
