<svg width="37" height="37" viewBox="0 0 37 37" fill="none" xmlns="http://www.w3.org/2000/svg">
<g clip-path="url(#clip0_384_181)">
<path d="M13.1155 22.5385H23.8847" stroke="white" stroke-width="2" stroke-linecap="round" stroke-linejoin="round"/>
<path d="M18.5 17.1538V27.9231" stroke="white" stroke-width="2" stroke-linecap="round" stroke-linejoin="round"/>
<path d="M33.3077 9.07693H3.69231C2.20539 9.07693 1 10.2823 1 11.7692V33.3077C1 34.7947 2.20539 36 3.69231 36H33.3077C34.7947 36 36 34.7947 36 33.3077V11.7692C36 10.2823 34.7947 9.07693 33.3077 9.07693Z" stroke="white" stroke-width="2" stroke-linecap="round" stroke-linejoin="round"/>
<path d="M26.5769 9.07692V3.69231C26.5769 2.97825 26.2933 2.29347 25.7884 1.78856C25.2835 1.28365 24.5987 1 23.8846 1H13.1154C12.4013 1 11.7166 1.28365 11.2116 1.78856C10.7068 2.29347 10.4231 2.97825 10.4231 3.69231V9.07692" stroke="white" stroke-width="2" stroke-linecap="round" stroke-linejoin="round"/>
</g>
<defs>
<clipPath id="clip0_384_181">
<rect width="37" height="37" fill="white"/>
</clipPath>
</defs>
</svg>
