<svg width="40" height="40" viewBox="0 0 40 40" fill="none" xmlns="http://www.w3.org/2000/svg">
<g clip-path="url(#clip0_57_332)">
<path d="M15.7144 30C15.7144 32.2731 16.6174 34.4534 18.2249 36.0608C19.8323 37.6683 22.0125 38.5714 24.2858 38.5714H30.0001C32.2732 38.5714 34.4535 37.6683 36.0609 36.0608C37.6684 34.4534 38.5715 32.2731 38.5715 30V1.42856" stroke="white" stroke-width="2" stroke-linecap="round" stroke-linejoin="round"/>
<path d="M30.0001 15.7143C30.0001 14.1988 29.3981 12.7453 28.3265 11.6737C27.2548 10.602 25.8014 10 24.2859 10H7.143C5.62748 10 4.17403 10.602 3.1024 11.6737C2.03075 12.7453 1.42871 14.1988 1.42871 15.7143V21.4286C1.42871 22.9441 2.03075 24.3975 3.1024 25.4692C4.17403 26.5408 5.62748 27.1429 7.143 27.1429H10.0001L13.343 22.1429C13.6044 21.7539 13.9574 21.4353 14.3709 21.2149C14.7845 20.9946 15.2459 20.8793 15.7144 20.8793C16.183 20.8793 16.6444 20.9946 17.0579 21.2149C17.4715 21.4353 17.8245 21.7539 18.0859 22.1429L21.4287 27.1429H24.2859C25.8014 27.1429 27.2548 26.5408 28.3265 25.4692C29.3981 24.3975 30.0001 22.9441 30.0001 21.4286V15.7143Z" stroke="white" stroke-width="2" stroke-linecap="round" stroke-linejoin="round"/>
</g>
<defs>
<clipPath id="clip0_57_332">
<rect width="40" height="40" fill="white"/>
</clipPath>
</defs>
</svg>
